<svg xmlns="http://www.w3.org/2000/svg" xmlns:xlink="http://www.w3.org/1999/xlink" width="1400" zoomAndPan="magnify" viewBox="0 0 1050 225" height="300" preserveAspectRatio="xMidYMid meet" version="1.0"><defs><g/><clipPath id="ae3183c2fc"><path d="M 201.558594 0.480469 L 373.59375 0.480469 L 373.59375 196.980469 L 201.558594 196.980469 Z M 201.558594 0.480469 " clip-rule="nonzero"/></clipPath><clipPath id="73c522e2c0"><rect x="0" width="507" y="0" height="206"/></clipPath></defs><g clip-path="url(#ae3183c2fc)"><path fill="#fe6019" d="M 308.691406 104.25 L 308.691406 136.445312 L 276.496094 136.445312 L 276.496094 119.890625 C 276.496094 112.859375 273.703125 106.117188 268.734375 101.144531 L 250.023438 82.4375 C 245.050781 77.464844 238.308594 74.671875 231.277344 74.671875 L 200.8125 74.671875 L 200.8125 102.734375 L 172.738281 102.734375 L 172.738281 74.660156 L 200.796875 74.660156 L 200.796875 28.554688 L 246.917969 28.554688 L 246.917969 59.035156 C 246.917969 66.066406 249.710938 72.808594 254.683594 77.777344 L 273.390625 96.488281 C 278.363281 101.457031 285.105469 104.25 292.136719 104.25 Z M 274.992188 0.480469 L 246.917969 0.480469 L 246.917969 28.554688 L 274.992188 28.554688 Z M 172.722656 0.480469 L 172.722656 28.554688 L 200.796875 28.554688 L 200.796875 0.480469 Z M 296.988281 43.34375 L 261.707031 43.34375 L 261.707031 62.953125 C 261.707031 69.984375 264.5 76.726562 269.472656 81.699219 C 274.441406 86.667969 281.183594 89.460938 288.214844 89.460938 L 296.523438 89.460938 C 313.320312 89.460938 327.335938 102.800781 327.589844 119.597656 C 327.84375 136.6875 314.023438 150.667969 296.988281 150.667969 L 261.707031 150.667969 L 261.707031 115.972656 C 261.707031 108.941406 258.914062 102.199219 253.941406 97.226562 C 248.972656 92.253906 242.230469 89.460938 235.199219 89.460938 L 215.589844 89.460938 L 215.589844 196.789062 L 296.253906 196.789062 C 338.722656 196.789062 373.675781 162.597656 373.710938 120.128906 C 373.746094 77.734375 339.382812 43.34375 296.988281 43.34375 Z M 296.988281 43.34375 " fill-opacity="1" fill-rule="nonzero"/></g><g transform="matrix(1, 0, 0, 1, 381, 19)"><g clip-path="url(#73c522e2c0)"><g fill="#000000" fill-opacity="1"><g transform="translate(0.529305, 156.339678)"><g><path d="M 50.921875 -105.046875 L 44.03125 -105.046875 C 43.820312 -105.046875 43.664062 -105.046875 43.5625 -105.046875 L 43.5625 -11.6875 C 43.664062 -7.738281 45.375 -4.800781 48.6875 -2.875 C 50.28125 -2.019531 51.988281 -1.59375 53.8125 -1.59375 L 55.890625 -1.59375 L 55.890625 0 L 7.203125 0 L 7.203125 -1.59375 L 9.28125 -1.59375 C 13.125 -1.59375 16.0625 -3.25 18.09375 -6.5625 C 18.945312 -8.0625 19.425781 -9.71875 19.53125 -11.53125 L 19.53125 -100.40625 C 19.425781 -103.1875 18.382812 -105.5625 16.40625 -107.53125 C 14.4375 -109.507812 12.0625 -110.5 9.28125 -110.5 L 7.203125 -110.5 L 7.203125 -112.09375 L 62.140625 -112.09375 C 72.492188 -112.09375 81.242188 -109.851562 88.390625 -105.375 C 92.023438 -103.132812 94.910156 -100.007812 97.046875 -96 C 99.179688 -92 100.25 -87.460938 100.25 -82.390625 C 100.25 -77.316406 99.367188 -72.644531 97.609375 -68.375 C 95.847656 -64.101562 92.910156 -60.363281 88.796875 -57.15625 C 84.679688 -53.957031 79.742188 -52.039062 73.984375 -51.40625 C 80.171875 -49.375 85.613281 -44.675781 90.3125 -37.3125 C 101.84375 -18.84375 110.382812 -7.847656 115.9375 -4.328125 C 118.71875 -2.617188 122.1875 -1.707031 126.34375 -1.59375 L 126.34375 0 L 110.65625 0 C 101.582031 0 94.003906 -1.253906 87.921875 -3.765625 C 81.835938 -6.273438 76.875 -10.570312 73.03125 -16.65625 C 71.101562 -19.75 68.644531 -24.414062 65.65625 -30.65625 C 62.664062 -36.90625 60.691406 -41.363281 59.734375 -44.03125 C 56.847656 -50.4375 53.21875 -54.015625 48.84375 -54.765625 L 48.84375 -56.375 L 53.8125 -56.375 C 58.613281 -56.375 62.851562 -57.8125 66.53125 -60.6875 C 70.21875 -63.570312 72.703125 -68.269531 73.984375 -74.78125 C 74.410156 -77.03125 74.625 -78.789062 74.625 -80.0625 C 74.625 -88.820312 72.863281 -95.148438 69.34375 -99.046875 C 65.820312 -102.941406 61.285156 -104.941406 55.734375 -105.046875 C 54.660156 -105.046875 53.054688 -105.046875 50.921875 -105.046875 Z M 50.921875 -105.046875 "/></g></g></g><g fill="#000000" fill-opacity="1"><g transform="translate(118.067908, 156.339678)"><g><path d="M 118.1875 -1.59375 L 119.625 -1.59375 L 119.625 0 L 68.53125 0 L 68.53125 -1.59375 L 69.984375 -1.59375 C 72.328125 -1.59375 74.054688 -2.3125 75.171875 -3.75 C 76.296875 -5.195312 76.859375 -6.5625 76.859375 -7.84375 C 76.859375 -9.125 76.59375 -10.40625 76.0625 -11.6875 L 68.21875 -31.390625 L 30.75 -31.390625 L 22.421875 -11.6875 C 21.878906 -10.300781 21.609375 -8.992188 21.609375 -7.765625 C 21.609375 -6.535156 22.171875 -5.195312 23.296875 -3.75 C 24.421875 -2.3125 26.207031 -1.59375 28.65625 -1.59375 L 29.9375 -1.59375 L 29.9375 0 L -4.328125 0 L -4.328125 -1.59375 L -2.890625 -1.59375 C -0.429688 -1.59375 2.019531 -2.335938 4.46875 -3.828125 C 6.925781 -5.328125 8.957031 -7.570312 10.5625 -10.5625 L 47.5625 -94.328125 C 52.570312 -104.890625 55.238281 -111.878906 55.5625 -115.296875 L 57 -115.296875 L 104.5625 -10.890625 C 106.164062 -7.796875 108.195312 -5.472656 110.65625 -3.921875 C 113.113281 -2.367188 115.625 -1.59375 118.1875 -1.59375 Z M 33.46875 -38.109375 L 65.5 -38.109375 L 49.953125 -77.515625 Z M 33.46875 -38.109375 "/></g></g></g><g fill="#000000" fill-opacity="1"><g transform="translate(232.724243, 156.339678)"><g><path d="M 118.984375 -1.59375 L 121.21875 -1.59375 L 121.21875 0 L 66.609375 0 L 66.609375 -1.59375 L 68.703125 -1.59375 C 70.941406 -1.59375 72.753906 -2.660156 74.140625 -4.796875 C 74.785156 -5.972656 75.109375 -7.09375 75.109375 -8.15625 C 75.109375 -9.226562 74.785156 -10.300781 74.140625 -11.375 L 51.875 -46.125 L 20.8125 -1.921875 C 8.21875 15.796875 -5.601562 24.65625 -20.65625 24.65625 C -22.90625 24.65625 -25.203125 24.441406 -27.546875 24.015625 L -27.546875 22.421875 C -18.148438 21.566406 -10.085938 17.5625 -3.359375 10.40625 C -0.160156 6.988281 3.675781 2.238281 8.15625 -3.84375 L 45.640625 -55.734375 L 16.328125 -101.046875 C 13.867188 -104.785156 10.613281 -107.507812 6.5625 -109.21875 C 4.425781 -110.070312 2.289062 -110.5 0.15625 -110.5 L -2.078125 -110.5 L -2.078125 -112.09375 L 52.359375 -112.09375 L 52.359375 -110.5 L 50.28125 -110.5 C 48.039062 -110.5 46.222656 -109.429688 44.828125 -107.296875 C 44.191406 -106.117188 43.875 -104.96875 43.875 -103.84375 C 43.875 -102.726562 44.140625 -101.691406 44.671875 -100.734375 L 64.375 -70.46875 L 92.234375 -111.453125 C 104.410156 -129.285156 118.078125 -138.203125 133.234375 -138.203125 C 134.515625 -138.203125 135.847656 -138.148438 137.234375 -138.046875 L 137.234375 -136.4375 C 128.484375 -136.226562 119.726562 -130.195312 110.96875 -118.34375 C 109.6875 -116.738281 108.429688 -115.03125 107.203125 -113.21875 C 105.984375 -111.40625 105.210938 -110.335938 104.890625 -110.015625 L 70.78125 -60.53125 L 102.8125 -10.890625 C 104.625 -8.222656 107 -6.003906 109.9375 -4.234375 C 112.875 -2.472656 115.890625 -1.59375 118.984375 -1.59375 Z M 118.984375 -1.59375 "/></g></g></g><g fill="#000000" fill-opacity="1"><g transform="translate(349.462324, 156.339678)"><g><path d="M 154.6875 29.3125 C 143.050781 35.175781 131.253906 36.132812 119.296875 32.1875 C 106.597656 28.132812 95.65625 19.488281 86.46875 6.25 C 81.5625 -0.800781 77.347656 -8.96875 73.828125 -18.25 L 68.703125 -31.875 L 30.90625 -31.875 L 22.421875 -11.6875 C 21.878906 -10.300781 21.609375 -9.179688 21.609375 -8.328125 C 21.609375 -7.472656 21.796875 -6.535156 22.171875 -5.515625 C 22.546875 -4.503906 23.347656 -3.597656 24.578125 -2.796875 C 25.804688 -1.992188 27.164062 -1.59375 28.65625 -1.59375 L 29.9375 -1.59375 L 29.9375 0 L -4.328125 0 L -4.328125 -1.59375 L -2.890625 -1.59375 C -0.429688 -1.59375 1.992188 -2.3125 4.390625 -3.75 C 6.796875 -5.195312 8.800781 -7.363281 10.40625 -10.25 L 46.109375 -91.765625 C 41.953125 -101.160156 37.523438 -107.617188 32.828125 -111.140625 C 28.878906 -114.128906 25.113281 -115.625 21.53125 -115.625 C 17.957031 -115.625 14.625 -115.085938 11.53125 -114.015625 L 11.203125 -115.625 C 18.890625 -119.570312 26.257812 -121.546875 33.3125 -121.546875 C 42.0625 -121.546875 49.90625 -118.128906 56.84375 -111.296875 C 63.675781 -104.566406 69.707031 -94.851562 74.9375 -82.15625 L 98.15625 -24.828125 C 106.914062 -3.148438 115.882812 11.742188 125.0625 19.859375 C 128.800781 23.171875 132.644531 25.46875 136.59375 26.75 C 140.539062 28.03125 143.875 28.671875 146.59375 28.671875 C 149.320312 28.671875 151.96875 28.347656 154.53125 27.703125 Z M 33.625 -38.75 L 66.296875 -38.75 L 55.078125 -68.375 C 54.546875 -69.875 53.800781 -71.929688 52.84375 -74.546875 C 51.882812 -77.160156 51.242188 -79 50.921875 -80.0625 Z M 33.625 -38.75 "/></g></g></g></g></g></svg>